{
   "accessors": [
      {
         "bufferView": 0,
         "byteOffset": 0,
         "componentType": 5126,
         "count": 6909,
         "max": [
            -8.40161,
            20.8387,
            942.038
         ],
         "min": [
            -104.398,
            -45.3297,
            825.44
         ],
         "type": "VEC3"
      },
      {
         "bufferView": 1,
         "byteOffset": 0,
         "componentType": 5126,
         "count": 6909,
         "type": "VEC3"
      },
      {
         "bufferView": 2,
         "byteOffset": 0,
         "componentType": 5125,
         "count": 41358,
         "type": "SCALAR"
      },
      {
         "bufferView": 3,
         "byteOffset": 0,
         "componentType": 5126,
         "count": 6402,
         "max": [
            -18.2028,
            22.245,
            931.259
         ],
         "min": [
            -95.4081,
            -44.7673,
            709.631
         ],
         "type": "VEC3"
      },
      {
         "bufferView": 4,
         "byteOffset": 0,
         "componentType": 5126,
         "count": 6402,
         "type": "VEC3"
      },
      {
         "bufferView": 5,
         "byteOffset": 0,
         "componentType": 5125,
         "count": 38340,
         "type": "SCALAR"
      },
      {
         "bufferView": 6,
         "byteOffset": 0,
         "componentType": 5126,
         "count": 16403,
         "max": [
            -7.35645,
            86.9702,
            925.331
         ],
         "min": [
            -124.465,
            -27.6537,
            585.354
         ],
         "type": "VEC3"
      },
      {
         "bufferView": 7,
         "byteOffset": 0,
         "componentType": 5126,
         "count": 16403,
         "type": "VEC3"
      },
      {
         "bufferView": 8,
         "byteOffset": 0,
         "componentType": 5125,
         "count": 98280,
         "type": "SCALAR"
      },
      {
         "bufferView": 9,
         "byteOffset": 0,
         "componentType": 5126,
         "count": 3585,
         "max": [
            -9.319,
            69.4275,
            900.899
         ],
         "min": [
            -50.9565,
            -19.7785,
            568.903
         ],
         "type": "VEC3"
      },
      {
         "bufferView": 10,
         "byteOffset": 0,
         "componentType": 5126,
         "count": 3585,
         "type": "VEC3"
      },
      {
         "bufferView": 11,
         "byteOffset": 0,
         "componentType": 5125,
         "count": 21462,
         "type": "SCALAR"
      },
      {
         "bufferView": 12,
         "byteOffset": 0,
         "componentType": 5126,
         "count": 3783,
         "max": [
            -26.3644,
            19.4729,
            979.464
         ],
         "min": [
            -106.651,
            -48.472,
            869.851
         ],
         "type": "VEC3"
      },
      {
         "bufferView": 13,
         "byteOffset": 0,
         "componentType": 5126,
         "count": 3783,
         "type": "VEC3"
      },
      {
         "bufferView": 14,
         "byteOffset": 0,
         "componentType": 5125,
         "count": 22602,
         "type": "SCALAR"
      }
   ],
   "asset": {
      "generator": "Slicer 5.6.2",
      "version": "2.0"
   },
   "bufferViews": [
      {
         "buffer": 0,
         "byteLength": 82908,
         "byteOffset": 0,
         "target": 34962
      },
      {
         "buffer": 1,
         "byteLength": 82908,
         "byteOffset": 0,
         "target": 34962
      },
      {
         "buffer": 2,
         "byteLength": 165432,
         "byteOffset": 0,
         "target": 34963
      },
      {
         "buffer": 3,
         "byteLength": 76824,
         "byteOffset": 0,
         "target": 34962
      },
      {
         "buffer": 4,
         "byteLength": 76824,
         "byteOffset": 0,
         "target": 34962
      },
      {
         "buffer": 5,
         "byteLength": 153360,
         "byteOffset": 0,
         "target": 34963
      },
      {
         "buffer": 6,
         "byteLength": 196836,
         "byteOffset": 0,
         "target": 34962
      },
      {
         "buffer": 7,
         "byteLength": 196836,
         "byteOffset": 0,
         "target": 34962
      },
      {
         "buffer": 8,
         "byteLength": 393120,
         "byteOffset": 0,
         "target": 34963
      },
      {
         "buffer": 9,
         "byteLength": 43020,
         "byteOffset": 0,
         "target": 34962
      },
      {
         "buffer": 10,
         "byteLength": 43020,
         "byteOffset": 0,
         "target": 34962
      },
      {
         "buffer": 11,
         "byteLength": 85848,
         "byteOffset": 0,
         "target": 34963
      },
      {
         "buffer": 12,
         "byteLength": 45396,
         "byteOffset": 0,
         "target": 34962
      },
      {
         "buffer": 13,
         "byteLength": 45396,
         "byteOffset": 0,
         "target": 34962
      },
      {
         "buffer": 14,
         "byteLength": 90408,
         "byteOffset": 0,
         "target": 34963
      }
   ],
   "buffers": [
      {
         "byteLength": 82908,
         "uri": "data:application/octet-stream;base64,"
      },
      {
         "byteLength": 82908,
         "uri": "data:application/octet-stream;base64,"
      },
      {
         "byteLength": 165432,
         "uri": "data:application/octet-stream;base64,"
      },
      {
         "byteLength": 76824,
         "uri": "data:application/octet-stream;base64,"
      },
      {
         "byteLength": 76824,
         "uri": "data:application/octet-stream;base64,"
      },
      {
         "byteLength": 153360,
         "uri": "data:application/octet-stream;base64,"
      },
      {
         "byteLength": 196836,
         "uri": "data:application/octet-stream;base64,"
      },
      {
         "byteLength": 196836,
         "uri": "data:application/octet-stream;base64,"
      },
      {
         "byteLength": 393120,
         "uri": "data:application/octet-stream;base64,"
      },
      {
         "byteLength": 43020,
         "uri": "data:application/octet-stream;base64,"
      },
      {
         "byteLength": 43020,
         "uri": "data:application/octet-stream;base64,"
      },
      {
         "byteLength": 85848,
         "uri": "data:application/octet-stream;base64,"
      },
      {
         "byteLength": 45396,
         "uri": "data:application/octet-stream;base64,"
      },
      {
         "byteLength": 45396,
         "uri": "data:application/octet-stream;base64,"
      },
      {
         "byteLength": 90408,
         "uri": "data:application/octet-stream;base64,"
      }
   ],
   "cameras": [
      {
         "perspective": {
            "aspectRatio": 1.0,
            "yfov": 0.5235987755982988,
            "zfar": 1000.01,
            "znear": 0.01
         },
         "type": "perspective"
      }
   ],
   "materials": [
      {
         "pbrMetallicRoughness": {
            "baseColorFactor": [
               1.0,
               1.0,
               0.0,
               1.0
            ],
            "metallicFactor": 0.0,
            "roughnessFactor": 1.0
         }
      },
      {
         "pbrMetallicRoughness": {
            "baseColorFactor": [
               1.0,
               1.0,
               0.0,
               1.0
            ],
            "metallicFactor": 0.0,
            "roughnessFactor": 1.0
         }
      },
      {
         "pbrMetallicRoughness": {
            "baseColorFactor": [
               1.0,
               1.0,
               0.0,
               1.0
            ],
            "metallicFactor": 0.0,
            "roughnessFactor": 1.0
         }
      },
      {
         "pbrMetallicRoughness": {
            "baseColorFactor": [
               1.0,
               1.0,
               0.0,
               1.0
            ],
            "metallicFactor": 0.0,
            "roughnessFactor": 1.0
         }
      },
      {
         "pbrMetallicRoughness": {
            "baseColorFactor": [
               1.0,
               1.0,
               0.0,
               1.0
            ],
            "metallicFactor": 0.0,
            "roughnessFactor": 1.0
         }
      }
   ],
   "meshes": [
      {
         "name": "Adductor Brevis_R",
         "primitives": [
            {
               "attributes": {
                  "NORMAL": 1,
                  "POSITION": 0
               },
               "indices": 2,
               "material": 0,
               "mode": 4
            }
         ]
      },
      {
         "name": "Adductor Longus_R",
         "primitives": [
            {
               "attributes": {
                  "NORMAL": 4,
                  "POSITION": 3
               },
               "indices": 5,
               "material": 1,
               "mode": 4
            }
         ]
      },
      {
         "name": "Adductor Magnus_R",
         "primitives": [
            {
               "attributes": {
                  "NORMAL": 7,
                  "POSITION": 6
               },
               "indices": 8,
               "material": 2,
               "mode": 4
            }
         ]
      },
      {
         "name": "Gracilis_R.nii.gz",
         "primitives": [
            {
               "attributes": {
                  "NORMAL": 10,
                  "POSITION": 9
               },
               "indices": 11,
               "material": 3,
               "mode": 4
            }
         ]
      },
      {
         "name": "Pectineus_R",
         "primitives": [
            {
               "attributes": {
                  "NORMAL": 13,
                  "POSITION": 12
               },
               "indices": 14,
               "material": 4,
               "mode": 4
            }
         ]
      }
   ],
   "nodes": [
      {
         "mesh": 0,
         "name": "Adductor Brevis_R"
      },
      {
         "mesh": 1,
         "name": "Adductor Longus_R"
      },
      {
         "mesh": 2,
         "name": "Adductor Magnus_R"
      },
      {
         "mesh": 3,
         "name": "Gracilis_R.nii.gz"
      },
      {
         "mesh": 4,
         "name": "Pectineus_R"
      },
      {
         "name": "Adductors.nii_Models",
         "children": [
            0,
            1,
            2,
            3,
            4
         ],
         "matrix": [
            0.001,
            0.0,
            0.0,
            0.0,
            0.0,
            0.0,
            -0.001,
            0.0,
            0.0,
            0.001,
            0.0,
            0.0,
            0.0,
            0.0,
            0.0,
            1.0
         ]
      }
   ],
   "scene": 0,
   "scenes": [
      {
         "name": "Layer 0",
         "nodes": [
            5
         ]
      }
   ]
}