{
   "accessors": [
      {
         "bufferView": 0,
         "byteOffset": 0,
         "componentType": 5126,
         "count": 17452,
         "max": [
            -5.707,
            122.785,
            1091.51
         ],
         "min": [
            -170.598,
            30.5504,
            789.399
         ],
         "type": "VEC3"
      },
      {
         "bufferView": 1,
         "byteOffset": 0,
         "componentType": 5126,
         "count": 17452,
         "type": "VEC3"
      },
      {
         "bufferView": 2,
         "byteOffset": 0,
         "componentType": 5125,
         "count": 104736,
         "type": "SCALAR"
      },
      {
         "bufferView": 3,
         "byteOffset": 0,
         "componentType": 5126,
         "count": 11137,
         "max": [
            -53.0512,
            84.5766,
            1119.78
         ],
         "min": [
            -171.221,
            -35.5846,
            930.868
         ],
         "type": "VEC3"
      },
      {
         "bufferView": 4,
         "byteOffset": 0,
         "componentType": 5126,
         "count": 11137,
         "type": "VEC3"
      },
      {
         "bufferView": 5,
         "byteOffset": 0,
         "componentType": 5125,
         "count": 66822,
         "type": "SCALAR"
      },
      {
         "bufferView": 6,
         "byteOffset": 0,
         "componentType": 5126,
         "count": 5180,
         "max": [
            -66.7033,
            61.4349,
            1072.02
         ],
         "min": [
            -160.278,
            -33.1596,
            952.948
         ],
         "type": "VEC3"
      },
      {
         "bufferView": 7,
         "byteOffset": 0,
         "componentType": 5126,
         "count": 5180,
         "type": "VEC3"
      },
      {
         "bufferView": 8,
         "byteOffset": 0,
         "componentType": 5125,
         "count": 31080,
         "type": "SCALAR"
      },
      {
         "bufferView": 9,
         "byteOffset": 0,
         "componentType": 5126,
         "count": 3483,
         "max": [
            -123.147,
            3.02974,
            1041.78
         ],
         "min": [
            -179.66,
            -44.2986,
            854.112
         ],
         "type": "VEC3"
      },
      {
         "bufferView": 10,
         "byteOffset": 0,
         "componentType": 5126,
         "count": 3483,
         "type": "VEC3"
      },
      {
         "bufferView": 11,
         "byteOffset": 0,
         "componentType": 5125,
         "count": 20874,
         "type": "SCALAR"
      }
   ],
   "asset": {
      "generator": "Slicer 5.6.2",
      "version": "2.0"
   },
   "bufferViews": [
      {
         "buffer": 0,
         "byteLength": 209424,
         "byteOffset": 0,
         "target": 34962
      },
      {
         "buffer": 1,
         "byteLength": 209424,
         "byteOffset": 0,
         "target": 34962
      },
      {
         "buffer": 2,
         "byteLength": 418944,
         "byteOffset": 0,
         "target": 34963
      },
      {
         "buffer": 3,
         "byteLength": 133644,
         "byteOffset": 0,
         "target": 34962
      },
      {
         "buffer": 4,
         "byteLength": 133644,
         "byteOffset": 0,
         "target": 34962
      },
      {
         "buffer": 5,
         "byteLength": 267288,
         "byteOffset": 0,
         "target": 34963
      },
      {
         "buffer": 6,
         "byteLength": 62160,
         "byteOffset": 0,
         "target": 34962
      },
      {
         "buffer": 7,
         "byteLength": 62160,
         "byteOffset": 0,
         "target": 34962
      },
      {
         "buffer": 8,
         "byteLength": 124320,
         "byteOffset": 0,
         "target": 34963
      },
      {
         "buffer": 9,
         "byteLength": 41796,
         "byteOffset": 0,
         "target": 34962
      },
      {
         "buffer": 10,
         "byteLength": 41796,
         "byteOffset": 0,
         "target": 34962
      },
      {
         "buffer": 11,
         "byteLength": 83496,
         "byteOffset": 0,
         "target": 34963
      }
   ],
   "buffers": [
      {
         "byteLength": 209424,
         "uri": "data:application/octet-stream;base64,"
      },
      {
         "byteLength": 209424,
         "uri": "data:application/octet-stream;base64,"
      },
      {
         "byteLength": 418944,
         "uri": "data:application/octet-stream;base64,"
      },
      {
         "byteLength": 133644,
         "uri": "data:application/octet-stream;base64,"
      },
      {
         "byteLength": 133644,
         "uri": "data:application/octet-stream;base64,"
      },
      {
         "byteLength": 267288,
         "uri": "data:application/octet-stream;base64,"
      },
      {
         "byteLength": 62160,
         "uri": "data:application/octet-stream;base64,"
      },
      {
         "byteLength": 62160,
         "uri": "data:application/octet-stream;base64,"
      },
      {
         "byteLength": 124320,
         "uri": "data:application/octet-stream;base64,"
      },
      {
         "byteLength": 41796,
         "uri": "data:application/octet-stream;base64,"
      },
      {
         "byteLength": 41796,
         "uri": "data:application/octet-stream;base64,"
      },
      {
         "byteLength": 83496,
         "uri": "data:application/octet-stream;base64,"
      }
   ],
   "cameras": [
      {
         "perspective": {
            "aspectRatio": 1.0,
            "yfov": 0.5235987755982988,
            "zfar": 1000.01,
            "znear": 0.01
         },
         "type": "perspective"
      }
   ],
   "materials": [
      {
         "pbrMetallicRoughness": {
            "baseColorFactor": [
               0.3333329999999999,
               0.0,
               1.0,
               1.0
            ],
            "metallicFactor": 0.0,
            "roughnessFactor": 1.0
         }
      },
      {
         "pbrMetallicRoughness": {
            "baseColorFactor": [
               0.3333329999999999,
               0.0,
               1.0,
               1.0
            ],
            "metallicFactor": 0.0,
            "roughnessFactor": 1.0
         }
      },
      {
         "pbrMetallicRoughness": {
            "baseColorFactor": [
               0.3333329999999999,
               0.0,
               1.0,
               1.0
            ],
            "metallicFactor": 0.0,
            "roughnessFactor": 1.0
         }
      },
      {
         "pbrMetallicRoughness": {
            "baseColorFactor": [
               0.666667,
               0.666667,
               0.0,
               1.0
            ],
            "metallicFactor": 0.0,
            "roughnessFactor": 1.0
         }
      }
   ],
   "meshes": [
      {
         "name": "Gluteus Maximus_R",
         "primitives": [
            {
               "attributes": {
                  "NORMAL": 1,
                  "POSITION": 0
               },
               "indices": 2,
               "material": 0,
               "mode": 4
            }
         ]
      },
      {
         "name": "Gluteus Medius_R",
         "primitives": [
            {
               "attributes": {
                  "NORMAL": 4,
                  "POSITION": 3
               },
               "indices": 5,
               "material": 1,
               "mode": 4
            }
         ]
      },
      {
         "name": "Gluteus Minimus_R",
         "primitives": [
            {
               "attributes": {
                  "NORMAL": 7,
                  "POSITION": 6
               },
               "indices": 8,
               "material": 2,
               "mode": 4
            }
         ]
      },
      {
         "name": "Tensor Fasciae Latae_R",
         "primitives": [
            {
               "attributes": {
                  "NORMAL": 10,
                  "POSITION": 9
               },
               "indices": 11,
               "material": 3,
               "mode": 4
            }
         ]
      }
   ],
   "nodes": [
      {
         "mesh": 0,
         "name": "Gluteus Maximus_R"
      },
      {
         "mesh": 1,
         "name": "Gluteus Medius_R"
      },
      {
         "mesh": 2,
         "name": "Gluteus Minimus_R"
      },
      {
         "mesh": 3,
         "name": "Tensor Fasciae Latae_R"
      },
      {
         "name": "Glutes.nii_Models",
         "children": [
            0,
            1,
            2,
            3
         ],
         "matrix": [
            0.001,
            0.0,
            0.0,
            0.0,
            0.0,
            0.0,
            -0.001,
            0.0,
            0.0,
            0.001,
            0.0,
            0.0,
            0.0,
            0.0,
            0.0,
            1.0
         ]
      }
   ],
   "scene": 0,
   "scenes": [
      {
         "name": "Layer 0",
         "nodes": [
            4
         ]
      }
   ]
}