{
   "accessors": [
      {
         "bufferView": 0,
         "byteOffset": 0,
         "componentType": 5126,
         "count": 7707,
         "max": [
            -61.9224,
            -18.1117,
            1006.03
         ],
         "min": [
            -154.131,
            -65.7555,
            640.525
         ],
         "type": "VEC3"
      },
      {
         "bufferView": 1,
         "byteOffset": 0,
         "componentType": 5126,
         "count": 7707,
         "type": "VEC3"
      },
      {
         "bufferView": 2,
         "byteOffset": 0,
         "componentType": 5125,
         "count": 46218,
         "type": "SCALAR"
      },
      {
         "bufferView": 3,
         "byteOffset": 0,
         "componentType": 5126,
         "count": 14665,
         "max": [
            -71.3726,
            61.688,
            917.607
         ],
         "min": [
            -155.99,
            -42.306,
            540.283
         ],
         "type": "VEC3"
      },
      {
         "bufferView": 4,
         "byteOffset": 0,
         "componentType": 5126,
         "count": 14665,
         "type": "VEC3"
      },
      {
         "bufferView": 5,
         "byteOffset": 0,
         "componentType": 5125,
         "count": 87906,
         "type": "SCALAR"
      },
      {
         "bufferView": 6,
         "byteOffset": 0,
         "componentType": 5126,
         "count": 16224,
         "max": [
            -101.04,
            67.6907,
            956.638
         ],
         "min": [
            -181.476,
            -58.2442,
            581.376
         ],
         "type": "VEC3"
      },
      {
         "bufferView": 7,
         "byteOffset": 0,
         "componentType": 5126,
         "count": 16224,
         "type": "VEC3"
      },
      {
         "bufferView": 8,
         "byteOffset": 0,
         "componentType": 5125,
         "count": 97296,
         "type": "SCALAR"
      },
      {
         "bufferView": 9,
         "byteOffset": 0,
         "componentType": 5126,
         "count": 11570,
         "max": [
            -31.7015,
            26.5171,
            901.599
         ],
         "min": [
            -120.217,
            -50.2538,
            520.986
         ],
         "type": "VEC3"
      },
      {
         "bufferView": 10,
         "byteOffset": 0,
         "componentType": 5126,
         "count": 11570,
         "type": "VEC3"
      },
      {
         "bufferView": 11,
         "byteOffset": 0,
         "componentType": 5125,
         "count": 69354,
         "type": "SCALAR"
      }
   ],
   "asset": {
      "generator": "Slicer 5.6.2",
      "version": "2.0"
   },
   "bufferViews": [
      {
         "buffer": 0,
         "byteLength": 92484,
         "byteOffset": 0,
         "target": 34962
      },
      {
         "buffer": 1,
         "byteLength": 92484,
         "byteOffset": 0,
         "target": 34962
      },
      {
         "buffer": 2,
         "byteLength": 184872,
         "byteOffset": 0,
         "target": 34963
      },
      {
         "buffer": 3,
         "byteLength": 175980,
         "byteOffset": 0,
         "target": 34962
      },
      {
         "buffer": 4,
         "byteLength": 175980,
         "byteOffset": 0,
         "target": 34962
      },
      {
         "buffer": 5,
         "byteLength": 351624,
         "byteOffset": 0,
         "target": 34963
      },
      {
         "buffer": 6,
         "byteLength": 194688,
         "byteOffset": 0,
         "target": 34962
      },
      {
         "buffer": 7,
         "byteLength": 194688,
         "byteOffset": 0,
         "target": 34962
      },
      {
         "buffer": 8,
         "byteLength": 389184,
         "byteOffset": 0,
         "target": 34963
      },
      {
         "buffer": 9,
         "byteLength": 138840,
         "byteOffset": 0,
         "target": 34962
      },
      {
         "buffer": 10,
         "byteLength": 138840,
         "byteOffset": 0,
         "target": 34962
      },
      {
         "buffer": 11,
         "byteLength": 277416,
         "byteOffset": 0,
         "target": 34963
      }
   ],
   "buffers": [
      {
         "byteLength": 92484,
         "uri": "data:application/octet-stream;base64,"
      },
      {
         "byteLength": 92484,
         "uri": "data:application/octet-stream;base64,"
      },
      {
         "byteLength": 184872,
         "uri": "data:application/octet-stream;base64,"
      },
      {
         "byteLength": 175980,
         "uri": "data:application/octet-stream;base64,"
      },
      {
         "byteLength": 175980,
         "uri": "data:application/octet-stream;base64,"
      },
      {
         "byteLength": 351624,
         "uri": "data:application/octet-stream;base64,"
      },
      {
         "byteLength": 194688,
         "uri": "data:application/octet-stream;base64,"
      },
      {
         "byteLength": 194688,
         "uri": "data:application/octet-stream;base64,"
      },
      {
         "byteLength": 389184,
         "uri": "data:application/octet-stream;base64,"
      },
      {
         "byteLength": 138840,
         "uri": "data:application/octet-stream;base64,"
      },
      {
         "byteLength": 138840,
         "uri": "data:application/octet-stream;base64,"
      },
      {
         "byteLength": 277416,
         "uri": "data:application/octet-stream;base64,"
      }
   ],
   "cameras": [
      {
         "perspective": {
            "aspectRatio": 1.0,
            "yfov": 0.5235987755982988,
            "zfar": 1000.01,
            "znear": 0.01
         },
         "type": "perspective"
      }
   ],
   "materials": [
      {
         "pbrMetallicRoughness": {
            "baseColorFactor": [
               0.752941,
               0.235294,
               0.14117649999999998,
               1.0
            ],
            "metallicFactor": 0.0,
            "roughnessFactor": 1.0
         }
      },
      {
         "pbrMetallicRoughness": {
            "baseColorFactor": [
               0.752941,
               0.235294,
               0.14117649999999998,
               1.0
            ],
            "metallicFactor": 0.0,
            "roughnessFactor": 1.0
         }
      },
      {
         "pbrMetallicRoughness": {
            "baseColorFactor": [
               0.752941,
               0.235294,
               0.14117649999999998,
               1.0
            ],
            "metallicFactor": 0.0,
            "roughnessFactor": 1.0
         }
      },
      {
         "pbrMetallicRoughness": {
            "baseColorFactor": [
               0.752941,
               0.235294,
               0.14117649999999998,
               1.0
            ],
            "metallicFactor": 0.0,
            "roughnessFactor": 1.0
         }
      }
   ],
   "meshes": [
      {
         "name": "Rectus Femoris_R",
         "primitives": [
            {
               "attributes": {
                  "NORMAL": 1,
                  "POSITION": 0
               },
               "indices": 2,
               "material": 0,
               "mode": 4
            }
         ]
      },
      {
         "name": "Vastus Intermedius_R",
         "primitives": [
            {
               "attributes": {
                  "NORMAL": 4,
                  "POSITION": 3
               },
               "indices": 5,
               "material": 1,
               "mode": 4
            }
         ]
      },
      {
         "name": "Vastus Lateralis_R",
         "primitives": [
            {
               "attributes": {
                  "NORMAL": 7,
                  "POSITION": 6
               },
               "indices": 8,
               "material": 2,
               "mode": 4
            }
         ]
      },
      {
         "name": "Vastus Medialis_R",
         "primitives": [
            {
               "attributes": {
                  "NORMAL": 10,
                  "POSITION": 9
               },
               "indices": 11,
               "material": 3,
               "mode": 4
            }
         ]
      }
   ],
   "nodes": [
      {
         "mesh": 0,
         "name": "Rectus Femoris_R"
      },
      {
         "mesh": 1,
         "name": "Vastus Intermedius_R"
      },
      {
         "mesh": 2,
         "name": "Vastus Lateralis_R"
      },
      {
         "mesh": 3,
         "name": "Vastus Medialis_R"
      },
      {
         "name": "Quadriceps.nii_Models",
         "children": [
            0,
            1,
            2,
            3
         ],
         "matrix": [
            0.001,
            0.0,
            0.0,
            0.0,
            0.0,
            0.0,
            -0.001,
            0.0,
            0.0,
            0.001,
            0.0,
            0.0,
            0.0,
            0.0,
            0.0,
            1.0
         ]
      }
   ],
   "scene": 0,
   "scenes": [
      {
         "name": "Layer 0",
         "nodes": [
            4
         ]
      }
   ]
}